# xmcd
#
# Track frame offsets:
#	150
#	20310
#	35417
#	48170
#	67092
#	80912
#	97417
#	122207
#	139144
#	157084
#	174699
#	191997
#	207867
#	219514
#	233232
#
# Disc length: 3276
#
# Revision: 3
# Processed by: cddbd v1.5.2PL0 Copyright (c) Steve Scherf et al.
# Submitted via: kJams Pro (development) 1.0patch46.21
#
DISCID=e70cca0f
DTITLE=Various Artist - SC 56
DYEAR=1980
DGENRE=Country
TTITLE0=Charlie Daniels Dand - The Legend Of Wooley Swamp
TTITLE1=Marty Robbins - Walking Piece Of Heaven
TTITLE2=Johnny Cash - A Thing Called Love
TTITLE3=Randy Travis - Promises
TTITLE4=Dwight Yoakam - Honky Tonk Man
TTITLE5=Waylon Jennings - Drinkin' and Dreamin'
TTITLE6=Merle Haggard - Going Where The Lonely Go
TTITLE7=Nitty Gritty Dirt Band - Long Hard Road
TTITLE8=Skip Ewing - The Gospel According To Luke
TTITLE9=Cristy Lane - Simple Little Words
TTITLE10=Ricky Van Shelton - Crime Of Passion
TTITLE11=Exile - It'll Be Me
TTITLE12=Conway Twitty - Boogie Grass Band
TTITLE13=T.G. Sheppard - Devil In The Bottle
TTITLE14=Janie Fricke - Down To My Last Broken Heart
EXTD=MediaType: Karaoke CD+G Producer: Sound Choice
EXTT0=
EXTT1=
EXTT2=
EXTT3=
EXTT4=
EXTT5=
EXTT6=
EXTT7=
EXTT8=
EXTT9=
EXTT10=
EXTT11=
EXTT12=
EXTT13=
EXTT14=
PLAYORDER=
